<svg width="25" height="19" viewBox="0 0 25 19" fill="none" xmlns="http://www.w3.org/2000/svg">
<path d="M3.75 8.14286C5.12891 8.14286 6.25 6.92567 6.25 5.42857C6.25 3.93147 5.12891 2.71429 3.75 2.71429C2.37109 2.71429 1.25 3.93147 1.25 5.42857C1.25 6.92567 2.37109 8.14286 3.75 8.14286ZM21.25 8.14286C22.6289 8.14286 23.75 6.92567 23.75 5.42857C23.75 3.93147 22.6289 2.71429 21.25 2.71429C19.8711 2.71429 18.75 3.93147 18.75 5.42857C18.75 6.92567 19.8711 8.14286 21.25 8.14286ZM22.5 9.5H20C19.3125 9.5 18.6914 9.80112 18.2383 10.2888C19.8125 11.2261 20.9297 12.9183 21.1719 14.9286H23.75C24.4414 14.9286 25 14.3221 25 13.5714V12.2143C25 10.7172 23.8789 9.5 22.5 9.5ZM12.5 9.5C14.918 9.5 16.875 7.37522 16.875 4.75C16.875 2.12478 14.918 0 12.5 0C10.082 0 8.125 2.12478 8.125 4.75C8.125 7.37522 10.082 9.5 12.5 9.5ZM15.5 10.8571H15.1758C14.3633 11.2812 13.4609 11.5357 12.5 11.5357C11.5391 11.5357 10.6406 11.2812 9.82422 10.8571H9.5C7.01562 10.8571 5 13.0455 5 15.7429V16.9643C5 18.0882 5.83984 19 6.875 19H18.125C19.1602 19 20 18.0882 20 16.9643V15.7429C20 13.0455 17.9844 10.8571 15.5 10.8571ZM6.76172 10.2888C6.30859 9.80112 5.6875 9.5 5 9.5H2.5C1.12109 9.5 0 10.7172 0 12.2143V13.5714C0 14.3221 0.558594 14.9286 1.25 14.9286H3.82422C4.07031 12.9183 5.1875 11.2261 6.76172 10.2888Z" fill="black"/>
</svg>
