<svg width="71" height="56" viewBox="0 0 71 56" fill="none" xmlns="http://www.w3.org/2000/svg">
<path d="M59.1667 48V50C59.1667 53.3138 56.5177 56 53.25 56H5.91667C2.64894 56 0 53.3138 0 50V18C0 14.6862 2.64894 12 5.91667 12H7.88889V38C7.88889 43.514 12.3126 48 17.75 48H59.1667ZM71 38V6C71 2.68625 68.3511 0 65.0833 0H17.75C14.4823 0 11.8333 2.68625 11.8333 6V38C11.8333 41.3138 14.4823 44 17.75 44H65.0833C68.3511 44 71 41.3138 71 38ZM31.5556 12C31.5556 15.3138 28.9066 18 25.6389 18C22.3712 18 19.7222 15.3138 19.7222 12C19.7222 8.68625 22.3712 6 25.6389 6C28.9066 6 31.5556 8.68625 31.5556 12ZM19.7222 30L26.5652 23.0606C27.1428 22.4749 28.0794 22.4749 28.6571 23.0606L33.5278 28L50.2319 11.0606C50.8095 10.4749 51.7461 10.4749 52.3238 11.0606L63.1111 22V36H19.7222V30Z" fill="black"/>
</svg>
